<svg xmlns="http://www.w3.org/2000/svg" width="18" height="20"><g fill="none" fill-rule="evenodd"><path d="M-3-2h24v24H-3z"/><path fill="#FFF" fill-rule="nonzero" d="M3.035 2.101H1.47c-.803 0-1.47.612-1.47 1.39v15.12C0 19.387.667 20 1.47 20h13.06c.803 0 1.47-.612 1.47-1.39V8.63a.596.596 0 0 0-.6-.594.597.597 0 0 0-.599.594v9.981c0 .101-.11.203-.27.203H1.469c-.16 0-.27-.102-.27-.203V3.49c0-.1.11-.202.27-.202h1.566c.331 0 .6-.266.6-.593a.596.596 0 0 0-.6-.594zM3.5 13.009h2.986c.276 0 .5-.221.5-.494v-3.04a.497.497 0 0 0-.5-.494H3.5c-.276 0-.5.221-.5.494v3.04c0 .273.224.494.5.494zm.499-.988V9.97h1.988v2.052H3.999zm4.57.994h3.83c.33 0 .6-.265.6-.592a.596.596 0 0 0-.6-.593h-3.83c-.332 0-.6.266-.6.593 0 .327.268.592.6.592zM8.018 0c-.735 0-1.394.38-1.767.974h-1.7a1.58 1.58 0 0 0-1.591 1.57v.973c0 .33.268.597.6.597h4.935c.331 0 .6-.267.6-.597a.598.598 0 0 0-.6-.596H4.16v-.377c0-.207.173-.377.39-.377h2.074a.6.6 0 0 0 .564-.394.882.882 0 0 1 .83-.58c.378 0 .707.235.832.58a.6.6 0 0 0 .565.394h1.009c.331 0 .6-.267.6-.597a.598.598 0 0 0-.6-.596h-.637A2.085 2.085 0 0 0 8.019 0zm9.695 2.022l-1.617-1.6a.984.984 0 0 0-1.383 0L9.416 5.665a.983.983 0 0 0-.285.62l-.06.936-.07 1.06a.747.747 0 0 0 .007.16.76.76 0 0 0 .1.291.823.823 0 0 0 .795.401l1.921-.214a.97.97 0 0 0 .583-.279l5.307-5.251a.96.96 0 0 0 0-1.367zm-7.73 6.133l.059-.872.059-.933a.023.023 0 0 1 .005-.008l5.296-5.24 1.623 1.6a.004.004 0 0 1 0 .006l-5.31 5.254-1.731.193zm-.338-1.87l2.229 2.178.683-.685L10.33 5.6l-.684.685z"/></g></svg>