<svg xmlns="http://www.w3.org/2000/svg" width="18" height="20"><g fill="none" fill-rule="evenodd"><path d="M-3-2h24v24H-3z"/><path fill="#FFF" fill-rule="nonzero" d="M3.035 2.03H1.47C.667 2.03 0 2.644 0 3.425v15.18C0 19.385.667 20 1.47 20h13.06c.803 0 1.47-.614 1.47-1.395V9.529a.598.598 0 0 0-.6-.596.597.597 0 0 0-.599.596v9.076c0 .101-.11.203-.27.203H1.469c-.16 0-.27-.102-.27-.203V3.425c0-.101.11-.203.27-.203h1.566c.331 0 .6-.267.6-.596a.598.598 0 0 0-.6-.596zM3.5 13.082h2.986c.276 0 .5-.222.5-.497V9.528a.498.498 0 0 0-.5-.496H3.5c-.276 0-.5.222-.5.496v3.057c0 .275.224.497.5.497zm.499-.993v-2.064h1.988v2.064H3.999zm4.57-1.871h3.83c.33 0 .6-.267.6-.596a.598.598 0 0 0-.6-.596h-3.83c-.332 0-.6.267-.6.596 0 .329.268.596.6.596zm0 2.87h3.83c.33 0 .6-.266.6-.595a.598.598 0 0 0-.6-.596h-3.83c-.332 0-.6.267-.6.596 0 .329.268.596.6.596zM4.554.973a1.58 1.58 0 0 0-1.59 1.569v.972c0 .33.268.596.6.596h5.068c.331 0 .6-.267.6-.596a.598.598 0 0 0-.6-.596h-4.47v-.376c0-.206.174-.377.392-.377h2.07a.6.6 0 0 0 .564-.394.89.89 0 0 1 1.197-.5.6.6 0 0 0 .794-.295.595.595 0 0 0-.298-.79 2.094 2.094 0 0 0-2.628.787H4.555zM10 4.068a4 4 0 1 1 8 0 4 4 0 1 1-8 0zm1 0a3 3 0 1 0 6 .001 3 3 0 0 0-6-.001zm1.78-.353a.5.5 0 0 0-.707.707l1.05 1.049a.5.5 0 0 0 .706 0l2.097-2.098a.5.5 0 1 0-.707-.707L13.476 4.41l-.696-.695z"/></g></svg>