<svg xmlns="http://www.w3.org/2000/svg" width="18" height="20"><g fill="none" fill-rule="evenodd"><path d="M-1 0h20v20H-1z"/><path fill="#FFF" fill-rule="nonzero" d="M1 4v11.5h10v-.352c0-.263.224-.476.5-.476s.5.213.5.476v1.891C12 18.664 10.733 20 9.143 20H2.857C1.267 20 0 18.664 0 17.039V2.96C0 1.335 1.267 0 2.857 0h6.286C10.733 0 12 1.335 12 2.96v1.656a.489.489 0 0 1-.5.477.489.489 0 0 1-.5-.477V4H1zm0-1h10v-.04C11 1.84 10.157.952 9.143.952H2.857C1.843.952 1 1.841 1 2.96V3zm0 13.5v.539c0 1.12.843 2.009 1.857 2.009h6.286c1.014 0 1.857-.89 1.857-2.009V16.5H1zM9.9 10a3.6 3.6 0 1 0 7.199.001A3.6 3.6 0 0 0 9.9 10zM9 10c0-2.486 2.014-4.5 4.5-4.5S18 7.514 18 10a4.5 4.5 0 1 1-9 0zm6.998-1.576a.463.463 0 0 1-.111.342l-2.673 3.079a.446.446 0 0 1-.675 0l-1.425-1.642a.461.461 0 0 1-.113-.34.462.462 0 0 1 .165-.322.444.444 0 0 1 .621.052l1.09 1.254 2.335-2.691a.443.443 0 0 1 .62-.053.464.464 0 0 1 .166.32zM6.75 17.75a.752.752 0 0 1-.75.752A.751.751 0 0 1 6 17a.75.75 0 0 1 .75.75zM5 2.5a.5.5 0 0 1 0-1h2a.5.5 0 0 1 0 1H5z"/></g></svg>