<svg xmlns="http://www.w3.org/2000/svg" width="20" height="17" viewBox="0 0 20 17">
    <g fill="none" fill-rule="evenodd">
        <path d="M0-2h20v20H0z"/>
        <path fill="#FFF" fill-rule="nonzero" d="M6.973 14.997a2 2 0 1 1-4.001-.001 2 2 0 0 1 4.001.001zm-.988 0c0-.55-.452-1-1.012-1s-1.012.45-1.012 1 .452 1 1.012 1 1.012-.45 1.012-1zM16.923 15a2 2 0 1 1-4.001-.001 2 2 0 0 1 4 .001zm-.988 0c0-.55-.452-1-1.012-1s-1.012.45-1.012 1 .452 1 1.012 1 1.012-.45 1.012-1zM11.07 3.342V2.138C11.07 1.515 10.54 1 9.88 1H2.185C1.523 1 .994 1.515.994 2.138V9.98l10.046.068V3.515c0-.06.011-.119.03-.173zm.993-.327h1.175c.607 0 1.053.25 1.658.789l.266.241.21.19 4.494 4.856a.502.502 0 0 1 .133.341v4.28c0 .749-.598 1.357-1.34 1.357h-1.912a.498.498 0 0 1-.497-.5c0-.277.223-.5.497-.5h1.912a.35.35 0 0 0 .346-.357V9.63l-4.322-4.675-.186-.166c-.133-.122-.2-.182-.26-.235-.438-.391-.7-.538-.999-.538h-1.205v6.537a.498.498 0 0 1-.5.5L.994 10.98v2.732a.35.35 0 0 0 .347.356h1.785c.274 0 .497.224.497.5 0 .277-.223.5-.497.5H1.341c-.742 0-1.34-.607-1.34-1.356v-2.548L0 11.144V2.138C0 .954.983 0 2.185 0H9.88c1.202 0 2.184.954 2.184 2.138v.877zm-5.63 12.06a.5.5 0 0 1-.497-.503.5.5 0 0 1 .497-.504h6.596a.5.5 0 0 1 .497.504.5.5 0 0 1-.497.503H6.434zm7.483-9.495v2.496h1.544c.275 0 .497.224.497.5 0 .277-.222.5-.497.5H13.42a.498.498 0 0 1-.497-.5V5.58c0-.276.222-.5.497-.5.274 0 .497.224.497.5z"/>
    </g>
</svg>
