<svg xmlns="http://www.w3.org/2000/svg" width="20" height="15" viewBox="0 0 20 15">
    <g fill="none" fill-rule="evenodd">
        <path d="M-2-5h24v24H-2z"/>
        <path fill="#FFF" fill-rule="nonzero" d="M18.976 9.503a.51.51 0 0 1 .497-.523.51.51 0 0 1 .498.523v3.255c0 1.233-.914 2.242-2.054 2.242H2.054C.914 15 0 13.992 0 12.758V3.81c0-1.234.914-2.243 2.054-2.243h8.405a.51.51 0 0 1 .498.524.51.51 0 0 1-.498.523H2.054c-.58 0-1.059.529-1.059 1.196v8.948c0 .667.479 1.195 1.06 1.195h15.862c.58 0 1.059-.529 1.059-1.195V9.503zM.996 6.322h9.476a.5.5 0 0 1 .498.502.5.5 0 0 1-.498.502H.498A.5.5 0 0 1 0 6.824V4.92a.5.5 0 0 1 .498-.501h9.974a.5.5 0 0 1 .498.501.5.5 0 0 1-.498.502H.996v.899zm2.528 3.67a.5.5 0 0 1-.498-.503.5.5 0 0 1 .498-.503h4.014a.5.5 0 0 1 .498.503.5.5 0 0 1-.498.503H3.524zm.01 1.953a.5.5 0 0 1-.498-.503.5.5 0 0 1 .498-.503H9.54a.5.5 0 0 1 .498.503.5.5 0 0 1-.498.503H3.534zM12.004 4A3.999 3.999 0 1 1 20 4a4 4 0 1 1-7.997 0zm.999 0A2.999 2.999 0 1 0 19 4a3 3 0 1 0-5.997 0zm1.78-.353l.694.695 1.743-1.744a.5.5 0 1 1 .707.707L15.83 5.403a.5.5 0 0 1-.707 0l-1.047-1.05a.5.5 0 0 1 .707-.706z"/>
    </g>
</svg>
