<svg xmlns="http://www.w3.org/2000/svg" width="18" height="20" viewBox="0 0 18 20">
    <g fill="none" fill-rule="evenodd">
        <path d="M-3-2h24v24H-3z"/>
        <path fill="#FFF" fill-rule="nonzero" d="M3.035 2.03H1.47C.667 2.03 0 2.644 0 3.425v15.18C0 19.385.667 20 1.47 20h13.06c.803 0 1.47-.614 1.47-1.395V9.529a.598.598 0 0 0-.6-.596c-.33 0-.599.266-.599.596v9.076c0 .101-.11.203-.27.203H1.469c-.16 0-.27-.102-.27-.203V3.425c0-.101.11-.203.27-.203h1.566c.331 0 .6-.267.6-.596a.598.598 0 0 0-.6-.596zM3.5 13.082h2.986c.276 0 .5-.222.5-.497V9.528a.498.498 0 0 0-.5-.496H3.5c-.276 0-.5.222-.5.496v3.057c0 .275.224.497.5.497zm.499-.993v-2.064h1.988v2.064H3.999zm4.57-1.871h3.83c.33 0 .6-.267.6-.596a.598.598 0 0 0-.6-.596h-3.83c-.332 0-.6.267-.6.596 0 .329.268.596.6.596zm0 2.87h3.83c.33 0 .6-.266.6-.595a.598.598 0 0 0-.6-.596h-3.83c-.332 0-.6.267-.6.596 0 .329.268.596.6.596zM4.554.973c-.876 0-1.59.701-1.59 1.569v.972c0 .33.268.596.6.596h5.068c.331 0 .6-.267.6-.596a.598.598 0 0 0-.6-.596h-4.47v-.376c0-.206.174-.377.392-.377h2.07a.6.6 0 0 0 .564-.394.89.89 0 0 1 1.197-.5.6.6 0 0 0 .794-.295.595.595 0 0 0-.298-.79 2.094 2.094 0 0 0-2.628.787H4.555zM10 4.068a4 4 0 1 1 8 0 4 4 0 1 1-8 0zm1 0a3 3 0 1 0 6 .001 3 3 0 0 0-6-.001zm1.456.877c.059.657.748 1.123 1.544 1.123.833 0 1.546-.513 1.546-1.21 0-.517-.334-.852-.843-1.044a2.75 2.75 0 0 0-.395-.113 8.421 8.421 0 0 0-.239-.045l-.227-.042a2.082 2.082 0 0 1-.296-.084c-.267-.1-.39-.224-.39-.39 0-.25.359-.51.846-.51.469 0 .824.241.845.485a.35.35 0 0 0 .698-.06c-.057-.658-.747-1.124-1.543-1.124-.833 0-1.547.512-1.547 1.21 0 .518.335.853.845 1.044.126.047.257.084.396.113.078.017.26.05.239.045a9.59 9.59 0 0 1 .226.043c.108.023.206.05.296.084.266.1.39.223.39.389 0 .25-.36.509-.847.509-.47 0-.824-.24-.846-.485a.35.35 0 1 0-.698.062zm1.186-3.059V6.25a.35.35 0 1 0 .7 0V1.886a.35.35 0 1 0-.7 0z"/>
    </g>
</svg>
