<svg xmlns="http://www.w3.org/2000/svg" width="20" height="20" viewBox="0 0 20 20">
    <g fill="none" fill-rule="evenodd">
        <path d="M0 0h20v20H0z"/>
        <path fill="#FFF" fill-rule="nonzero" d="M16.589 17.5H4.522a1.5 1.5 0 1 1-1.355-1V2.242L1.36 3.932a.5.5 0 0 1-.716-.008.523.523 0 0 1 .008-.73L3.32.649c.32-.32.86-.088.86.369v15.45h13.333c.083 0 .161.02.23.057a1.5 1.5 0 1 1-1.155.975zm-12.981.499a.5.5 0 1 0-1-.001.5.5 0 0 0 1 0zm14.893.003a.5.5 0 1 0-1-.001.5.5 0 0 0 1 0zM15.708 3.58v3.447a.512.512 0 0 1-.508.516h-3.08a.512.512 0 0 1-.508-.516V3.58H7.068a.482.482 0 0 0-.478.487v9.885c0 .269.214.487.478.487h4.544v-3.36c0-.285.228-.516.509-.516H15.2c.28 0 .508.23.508.516v3.36h.293a.483.483 0 0 0 .478-.487V4.067A.482.482 0 0 0 16 3.58h-.293zm.293 11.89H7.068c-.826 0-1.496-.68-1.496-1.518V4.067c0-.838.67-1.518 1.496-1.518h8.933c.826 0 1.495.68 1.495 1.518v9.885c0 .838-.67 1.518-1.495 1.518zm-3.372-3.876v2.837h2.062v-2.837h-2.062zm0-8.014v2.931h2.062v-2.93h-2.062zM8.67 12.498V8.914a.41.41 0 0 1 .407-.412.41.41 0 0 1 .407.412v3.584h.603c.28 0 .508.231.508.516a.512.512 0 0 1-.508.516H8.074a.512.512 0 0 1-.509-.516c0-.285.228-.516.509-.516h.596zm.003-2.544a.403.403 0 0 1-.575.019.417.417 0 0 1-.019-.583l.701-.758a.403.403 0 0 1 .576-.018.417.417 0 0 1 .018.583l-.701.757zm.104-.76a.417.417 0 0 1 .025-.583.403.403 0 0 1 .575.024l.657.725a.417.417 0 0 1-.024.583.403.403 0 0 1-.575-.024l-.658-.725z"/>
    </g>
</svg>
