<svg xmlns="http://www.w3.org/2000/svg" width="18" height="20" viewBox="0 0 18 20">
    <g fill="none" fill-rule="evenodd">
        <path d="M-1 0h20v20H-1z"/>
        <path fill="#FFF" fill-rule="nonzero" d="M2.856 20h6.288C10.733 20 12 18.665 12 17.039v-1.891a.49.49 0 0 0-.5-.477.49.49 0 0 0-.5.477v.352H1V4h10v.617a.49.49 0 0 0 .5.476.49.49 0 0 0 .5-.476V2.96C12 1.335 10.733 0 9.144 0H2.856C1.267 0 0 1.335 0 2.96v14.079C0 18.664 1.267 20 2.856 20zM1 16.5h10v.539c0 1.12-.843 2.008-1.856 2.008H2.856C1.843 19.047 1 18.159 1 17.039V16.5zM1 2.96C1 1.841 1.843.953 2.856.953h6.288C10.157.953 11 1.84 11 2.96V3H1v-.04zM7 1.5H5a.5.5 0 0 0 0 1h2a.5.5 0 0 0 0-1M5.999 18.502a.751.751 0 0 0 0-1.502.751.751 0 0 0 0 1.502m7.5-4.902a3.6 3.6 0 1 1 0-7.2 3.6 3.6 0 0 1 0 7.2m0-8.1a4.5 4.5 0 1 0 0 9 4.5 4.5 0 0 0 0-9m.502 4.377l.005-2.106a.5.5 0 0 0-1-.003L13 10.083a.5.5 0 0 0 .147.356l1.818 1.803a.5.5 0 1 0 .704-.71L14 9.877z"/>
    </g>
</svg>
